<svg width="19" height="15" viewBox="0 0 19 15" fill="none" xmlns="http://www.w3.org/2000/svg">
<path fill-rule="evenodd" clip-rule="evenodd" d="M18.5806 8.03063L11.8306 14.7806C11.5375 15.0737 11.0624 15.0737 10.7693 14.7806C10.4762 14.4876 10.4762 14.0124 10.7693 13.7194L16.2396 8.25H1.54993C1.13571 8.25 0.799927 7.91421 0.799927 7.5C0.799927 7.08579 1.13571 6.75 1.54993 6.75H16.2396L10.7693 1.28062C10.4762 0.987569 10.4762 0.512431 10.7693 0.219375C11.0624 -0.0736809 11.5375 -0.0736809 11.8306 0.219375L18.5806 6.96937C18.7214 7.11005 18.8005 7.30094 18.8005 7.5C18.8005 7.69906 18.7214 7.88995 18.5806 8.03063Z" fill="#141412"/>
</svg>
