<svg width="19" height="20" viewBox="0 0 19 20" fill="none" xmlns="http://www.w3.org/2000/svg">
<path fill-rule="evenodd" clip-rule="evenodd" d="M17.3 0.75H2.30005C1.47162 0.75 0.800049 1.42157 0.800049 2.25V7.76062C0.800049 16.1616 7.90817 18.9487 9.3313 19.4222C9.63525 19.5256 9.96485 19.5256 10.2688 19.4222C11.6938 18.9487 18.8 16.1616 18.8 7.76062V2.25C18.8 1.42157 18.1285 0.75 17.3 0.75ZM17.3 7.76156C17.3 15.1134 11.0797 17.5697 9.80005 17.9972C8.53161 17.5744 2.30005 15.12 2.30005 7.76156V2.25H17.3V7.76156ZM5.51942 10.2806C5.22637 9.98757 5.22637 9.51243 5.51942 9.21937C5.81248 8.92632 6.28762 8.92632 6.58067 9.21937L8.30005 10.9388L13.0194 6.21937C13.3125 5.92632 13.7876 5.92632 14.0807 6.21937C14.3737 6.51243 14.3737 6.98757 14.0807 7.28063L8.83067 12.5306C8.69 12.6715 8.49911 12.7506 8.30005 12.7506C8.10099 12.7506 7.9101 12.6715 7.76942 12.5306L5.51942 10.2806Z" fill="#141412"/>
</svg>
