<svg width="18" height="20" viewBox="0 0 18 20" fill="none" xmlns="http://www.w3.org/2000/svg">
<path fill-rule="evenodd" clip-rule="evenodd" d="M2.25 7V13C2.25 13.4142 1.91421 13.75 1.5 13.75C1.08579 13.75 0.75 13.4142 0.75 13V7C0.75 6.58579 1.08579 6.25 1.5 6.25C1.91421 6.25 2.25 6.58579 2.25 7ZM5.25 0.25C4.83579 0.25 4.5 0.585786 4.5 1V19C4.5 19.4142 4.83579 19.75 5.25 19.75C5.66421 19.75 6 19.4142 6 19V1C6 0.585786 5.66421 0.25 5.25 0.25ZM9 3.25C8.58579 3.25 8.25 3.58579 8.25 4V16C8.25 16.4142 8.58579 16.75 9 16.75C9.41421 16.75 9.75 16.4142 9.75 16V4C9.75 3.58579 9.41421 3.25 9 3.25ZM12.75 6.25C12.3358 6.25 12 6.58579 12 7V13C12 13.4142 12.3358 13.75 12.75 13.75C13.1642 13.75 13.5 13.4142 13.5 13V7C13.5 6.58579 13.1642 6.25 12.75 6.25ZM16.5 4.75C16.0858 4.75 15.75 5.08579 15.75 5.5V14.5C15.75 14.9142 16.0858 15.25 16.5 15.25C16.9142 15.25 17.25 14.9142 17.25 14.5V5.5C17.25 5.08579 16.9142 4.75 16.5 4.75Z" fill="#141412"/>
</svg>
