<svg width="868" height="276" viewBox="0 0 868 276" fill="none" xmlns="http://www.w3.org/2000/svg">
<path d="M0.51046 200.213C33.8557 200.213 33.8557 38.5732 67.2012 38.5732C100.546 38.5732 100.546 75.3096 133.892 75.3096C167.237 75.3096 167.237 170.824 200.582 170.824C233.928 170.824 233.928 60.6151 267.274 60.6151C300.619 60.6151 300.619 185.519 333.963 185.519C367.309 185.519 367.309 112.046 400.654 112.046C434 112.046 434 82.6569 467.346 82.6569C500.691 82.6569 500.691 222.255 534.037 222.255C567.381 222.255 567.381 273.686 600.726 273.686C634.072 273.686 634.072 1.83682 667.418 1.83682C700.763 1.83682 700.763 148.782 734.109 148.782C767.453 148.782 767.453 236.95 800.798 236.95C834.144 236.95 834.144 45.9205 867.49 45.9205" stroke="#78786E" stroke-width="3"/>
</svg>
