<svg width="868" height="273" viewBox="0 0 868 273" fill="none" xmlns="http://www.w3.org/2000/svg">
<path fill-rule="evenodd" clip-rule="evenodd" d="M0.51046 199.213C33.8557 199.213 33.8557 37.5732 67.2012 37.5732C100.546 37.5732 100.546 74.3096 133.892 74.3096C167.237 74.3096 167.237 169.824 200.582 169.824C233.928 169.824 233.928 59.6151 267.274 59.6151C300.619 59.6151 300.619 184.519 333.963 184.519C367.309 184.519 367.309 111.046 400.654 111.046C434 111.046 434 81.6569 467.346 81.6569C500.691 81.6569 500.691 221.255 534.037 221.255C567.381 221.255 567.381 272.686 600.726 272.686C634.072 272.686 634.072 0.83682 667.418 0.83682C700.763 0.83682 700.763 147.782 734.109 147.782C767.453 147.782 767.453 235.95 800.798 235.95C834.144 235.95 834.144 44.9205 867.49 44.9205V272.686H600.726H0.51046V199.213Z" fill="url(#paint0_linear_22_159)"/>
<defs>
<linearGradient id="paint0_linear_22_159" x1="-444" y1="-1" x2="-444" y2="147" gradientUnits="userSpaceOnUse">
<stop stop-color="#EDEDED"/>
<stop offset="0.5" stop-color="#EDEDED" stop-opacity="0"/>
</linearGradient>
</defs>
</svg>
