<svg width="19" height="21" viewBox="0 0 19 21" fill="none" xmlns="http://www.w3.org/2000/svg">
<path fill-rule="evenodd" clip-rule="evenodd" d="M16.7 7.5H13.7V5.25C13.7 2.76472 11.6852 0.75 9.19995 0.75C6.71467 0.75 4.69995 2.76472 4.69995 5.25V7.5H1.69995C0.871524 7.5 0.199951 8.17157 0.199951 9V19.5C0.199951 20.3284 0.871524 21 1.69995 21H16.7C17.5284 21 18.2 20.3284 18.2 19.5V9C18.2 8.17157 17.5284 7.5 16.7 7.5ZM6.19995 5.25C6.19995 3.59315 7.5431 2.25 9.19995 2.25C10.8568 2.25 12.2 3.59315 12.2 5.25V7.5H6.19995V5.25ZM16.7 19.5H1.69995V9H16.7V19.5ZM10.325 14.25C10.325 14.8713 9.82127 15.375 9.19995 15.375C8.57863 15.375 8.07495 14.8713 8.07495 14.25C8.07495 13.6287 8.57863 13.125 9.19995 13.125C9.82127 13.125 10.325 13.6287 10.325 14.25Z" fill="#141412"/>
</svg>
