<svg width="21" height="21" viewBox="0 0 21 21" fill="none" xmlns="http://www.w3.org/2000/svg">
<path fill-rule="evenodd" clip-rule="evenodd" d="M13.3999 0.5C10.9988 0.502153 8.74357 1.65284 7.33267 3.59572C5.92178 5.5386 5.52546 8.03919 6.26646 10.3231L0.869277 15.7194C0.728661 15.8601 0.649746 16.051 0.649902 16.25V20C0.649902 20.4142 0.985689 20.75 1.3999 20.75H5.1499C5.56412 20.75 5.8999 20.4142 5.8999 20V18.5H7.3999C7.81412 18.5 8.1499 18.1642 8.1499 17.75V16.25H9.6499C9.84888 16.2502 10.0398 16.1712 10.1805 16.0306L11.0768 15.1334C13.8931 16.0478 16.9839 15.2196 18.9656 13.0194C20.9473 10.8192 21.449 7.65903 20.2461 4.95328C19.0432 2.24753 16.361 0.502799 13.3999 0.5ZM13.3999 14C12.6407 14.0013 11.8882 13.8578 11.1827 13.5772C10.9003 13.4546 10.5717 13.5171 10.354 13.7347L9.33959 14.75H7.3999C6.98569 14.75 6.6499 15.0858 6.6499 15.5V17H5.1499C4.73569 17 4.3999 17.3358 4.3999 17.75V19.25H2.1499V16.5603L7.66521 11.0459C7.88282 10.8282 7.94527 10.4996 7.82271 10.2172C6.84907 7.76888 7.58661 4.97186 9.64089 3.32197C11.6952 1.67209 14.5854 1.55545 16.766 3.03444C18.9465 4.51343 19.9071 7.24193 19.1339 9.76073C18.3607 12.2795 16.0347 13.9992 13.3999 14ZM16.3999 6.125C16.3999 6.74632 15.8962 7.25 15.2749 7.25C14.6536 7.25 14.1499 6.74632 14.1499 6.125C14.1499 5.50368 14.6536 5 15.2749 5C15.8962 5 16.3999 5.50368 16.3999 6.125Z" fill="#141412"/>
</svg>
