<svg preserveAspectRatio="xMidYMid meet" data-bbox="182.481 67.792 101.561 87.978" viewBox="182.481 67.792 101.561 87.978" xmlns="http://www.w3.org/2000/svg" data-type="shape" role="presentation" aria-hidden="true" aria-label="">
    <g>
        <path d="M219.44 106.66q.14 22.3-.01 47.01 0 .59.14 1.15.4 1.64-.8.45l-36.07-35.74a.75.75 0 0 1 0-1.06l50.51-50.52q.32-.32.64.01 22.94 23.07 46.04 46.08c1.43 1.42 2.48 3.02 3.92 4.38a.74.73 43 0 1 .04 1.03c-10.95 11.91-22.99 23.29-35.59 35.81q-.77.76-.76-.32l.01-48.25q0-.42-.41-.34-2.11.39-4.17-.03-.44-.09-.44.36l.02 48.82q0 .25-.25.25h-6.01q-.25 0-.25-.25V96q0-.24-.25-.24h-4.5q-.25 0-.25.24v59.5a.25.25 0 0 1-.25.25l-6.07.01q-.2 0-.2-.2l.03-48.87q0-.42-.41-.34-1.86.4-4.23-.05-.43-.08-.43.36Z"></path>
    </g>
</svg>